<svg width="77" height="32" viewBox="0 0 77 32" fill="none" xmlns="http://www.w3.org/2000/svg">
<path d="M30.1222 19.88V12.124H32.3622C32.9782 12.124 33.4962 12.2127 33.9162 12.39C34.3362 12.558 34.6769 12.81 34.9382 13.146C35.2089 13.4727 35.4002 13.874 35.5122 14.35C35.6335 14.8167 35.6942 15.3487 35.6942 15.946C35.6942 16.562 35.6289 17.0893 35.4982 17.528C35.3769 17.9573 35.2182 18.3167 35.0222 18.606C34.8262 18.8953 34.6022 19.124 34.3502 19.292C34.1075 19.46 33.8602 19.5907 33.6082 19.684C33.3562 19.768 33.1182 19.824 32.8942 19.852C32.6702 19.8707 32.4835 19.88 32.3342 19.88H30.1222ZM28.7922 11.004V21H32.2222C33.0529 21 33.7715 20.8833 34.3782 20.65C34.9849 20.4167 35.4842 20.0807 35.8762 19.642C36.2682 19.194 36.5575 18.648 36.7442 18.004C36.9309 17.3507 37.0242 16.604 37.0242 15.764C37.0242 14.1587 36.6089 12.964 35.7782 12.18C34.9475 11.396 33.7622 11.004 32.2222 11.004H28.7922ZM39.7136 12.46V11.004H38.5236V12.46H39.7136ZM38.5236 13.762V21H39.7136V13.762H38.5236ZM42.2851 18.718H41.0951C41.1138 19.166 41.2071 19.5487 41.3751 19.866C41.5431 20.174 41.7671 20.426 42.0471 20.622C42.3271 20.8087 42.6491 20.944 43.0131 21.028C43.3771 21.112 43.7598 21.154 44.1611 21.154C44.5251 21.154 44.8891 21.1167 45.2531 21.042C45.6265 20.9767 45.9578 20.8553 46.2471 20.678C46.5458 20.5007 46.7838 20.2673 46.9611 19.978C47.1478 19.6887 47.2411 19.3247 47.2411 18.886C47.2411 18.5407 47.1711 18.2513 47.0311 18.018C46.9005 17.7847 46.7231 17.5933 46.4991 17.444C46.2845 17.2853 46.0325 17.1593 45.7431 17.066C45.4631 16.9727 45.1738 16.8933 44.8751 16.828C44.5951 16.7627 44.3151 16.702 44.0351 16.646C43.7551 16.5807 43.5031 16.506 43.2791 16.422C43.0551 16.3287 42.8685 16.2167 42.7191 16.086C42.5791 15.946 42.5091 15.7733 42.5091 15.568C42.5091 15.3813 42.5558 15.232 42.6491 15.12C42.7425 14.9987 42.8638 14.9053 43.0131 14.84C43.1625 14.7653 43.3258 14.714 43.5031 14.686C43.6898 14.658 43.8718 14.644 44.0491 14.644C44.2451 14.644 44.4365 14.6673 44.6231 14.714C44.8191 14.7513 44.9965 14.8167 45.1551 14.91C45.3138 15.0033 45.4445 15.1293 45.5471 15.288C45.6498 15.4373 45.7105 15.6287 45.7291 15.862H46.9191C46.8911 15.4233 46.7978 15.0593 46.6391 14.77C46.4805 14.4713 46.2658 14.238 45.9951 14.07C45.7338 13.8927 45.4305 13.7713 45.0851 13.706C44.7398 13.6313 44.3618 13.594 43.9511 13.594C43.6338 13.594 43.3118 13.636 42.9851 13.72C42.6678 13.7947 42.3785 13.916 42.1171 14.084C41.8651 14.2427 41.6551 14.4527 41.4871 14.714C41.3285 14.9753 41.2491 15.288 41.2491 15.652C41.2491 16.1187 41.3658 16.4827 41.5991 16.744C41.8325 17.0053 42.1218 17.2107 42.4671 17.36C42.8218 17.5 43.2045 17.612 43.6151 17.696C44.0258 17.7707 44.4038 17.8593 44.7491 17.962C45.1038 18.0553 45.3978 18.1813 45.6311 18.34C45.8645 18.4987 45.9811 18.732 45.9811 19.04C45.9811 19.264 45.9251 19.4507 45.8131 19.6C45.7011 19.74 45.5565 19.8473 45.3791 19.922C45.2111 19.9967 45.0245 20.048 44.8191 20.076C44.6138 20.104 44.4178 20.118 44.2311 20.118C43.9885 20.118 43.7505 20.0947 43.5171 20.048C43.2931 20.0013 43.0878 19.9267 42.9011 19.824C42.7238 19.712 42.5791 19.5673 42.4671 19.39C42.3551 19.2033 42.2945 18.9793 42.2851 18.718ZM53.4711 16.086H54.7031C54.6565 15.6567 54.5445 15.288 54.3671 14.98C54.1898 14.6627 53.9611 14.4013 53.6811 14.196C53.4105 13.9907 53.0931 13.8413 52.7291 13.748C52.3745 13.6453 51.9918 13.594 51.5811 13.594C51.0118 13.594 50.5125 13.6967 50.0831 13.902C49.6538 14.098 49.2945 14.3733 49.0051 14.728C48.7251 15.0733 48.5151 15.484 48.3751 15.96C48.2351 16.4267 48.1651 16.9307 48.1651 17.472C48.1651 18.0133 48.2351 18.5127 48.3751 18.97C48.5245 19.418 48.7391 19.8053 49.0191 20.132C49.3085 20.4587 49.6631 20.7107 50.0831 20.888C50.5125 21.0653 51.0025 21.154 51.5531 21.154C52.4771 21.154 53.2051 20.9113 53.7371 20.426C54.2785 19.9407 54.6145 19.25 54.7451 18.354H53.5271C53.4525 18.914 53.2471 19.348 52.9111 19.656C52.5845 19.964 52.1271 20.118 51.5391 20.118C51.1658 20.118 50.8438 20.0433 50.5731 19.894C50.3025 19.7447 50.0831 19.5487 49.9151 19.306C49.7471 19.054 49.6211 18.7693 49.5371 18.452C49.4625 18.1347 49.4251 17.808 49.4251 17.472C49.4251 17.108 49.4625 16.758 49.5371 16.422C49.6118 16.0767 49.7331 15.7733 49.9011 15.512C50.0785 15.2507 50.3118 15.0407 50.6011 14.882C50.8905 14.7233 51.2498 14.644 51.6791 14.644C52.1831 14.644 52.5845 14.77 52.8831 15.022C53.1818 15.274 53.3778 15.6287 53.4711 16.086ZM56.9447 17.388C56.9447 16.9493 57.0007 16.562 57.1127 16.226C57.234 15.8807 57.3973 15.5913 57.6027 15.358C57.808 15.1247 58.046 14.9473 58.3167 14.826C58.5967 14.7047 58.8907 14.644 59.1987 14.644C59.5067 14.644 59.796 14.7047 60.0667 14.826C60.3467 14.9473 60.5893 15.1247 60.7947 15.358C61 15.5913 61.1587 15.8807 61.2707 16.226C61.392 16.562 61.4527 16.9493 61.4527 17.388C61.4527 17.8267 61.392 18.2187 61.2707 18.564C61.1587 18.9 61 19.1847 60.7947 19.418C60.5893 19.642 60.3467 19.8147 60.0667 19.936C59.796 20.0573 59.5067 20.118 59.1987 20.118C58.8907 20.118 58.5967 20.0573 58.3167 19.936C58.046 19.8147 57.808 19.642 57.6027 19.418C57.3973 19.1847 57.234 18.9 57.1127 18.564C57.0007 18.2187 56.9447 17.8267 56.9447 17.388ZM55.6847 17.388C55.6847 17.92 55.7593 18.4147 55.9087 18.872C56.058 19.3293 56.282 19.7307 56.5807 20.076C56.8793 20.412 57.248 20.678 57.6867 20.874C58.1253 21.0607 58.6293 21.154 59.1987 21.154C59.7773 21.154 60.2813 21.0607 60.7107 20.874C61.1493 20.678 61.518 20.412 61.8167 20.076C62.1153 19.7307 62.3393 19.3293 62.4887 18.872C62.638 18.4147 62.7127 17.92 62.7127 17.388C62.7127 16.856 62.638 16.3613 62.4887 15.904C62.3393 15.4373 62.1153 15.036 61.8167 14.7C61.518 14.3547 61.1493 14.084 60.7107 13.888C60.2813 13.692 59.7773 13.594 59.1987 13.594C58.6293 13.594 58.1253 13.692 57.6867 13.888C57.248 14.084 56.8793 14.3547 56.5807 14.7C56.282 15.036 56.058 15.4373 55.9087 15.904C55.7593 16.3613 55.6847 16.856 55.6847 17.388ZM64.0737 13.762V21H65.2637V17.78C65.2637 17.3133 65.3104 16.9027 65.4037 16.548C65.4971 16.184 65.6464 15.876 65.8517 15.624C66.0571 15.372 66.3277 15.1807 66.6637 15.05C66.9997 14.9193 67.4057 14.854 67.8817 14.854V13.594C67.2377 13.5753 66.7057 13.706 66.2857 13.986C65.8657 14.266 65.5111 14.7 65.2217 15.288H65.1937V13.762H64.0737ZM69.3997 17.444C69.3997 17.0893 69.4371 16.744 69.5117 16.408C69.5864 16.072 69.7077 15.7733 69.8757 15.512C70.0437 15.2507 70.2677 15.0407 70.5477 14.882C70.8277 14.7233 71.1684 14.644 71.5697 14.644C71.9804 14.644 72.3304 14.7233 72.6197 14.882C72.9091 15.0313 73.1424 15.232 73.3197 15.484C73.5064 15.736 73.6417 16.03 73.7257 16.366C73.8097 16.6927 73.8517 17.0333 73.8517 17.388C73.8517 17.724 73.8097 18.0553 73.7257 18.382C73.6511 18.7087 73.5251 19.0027 73.3477 19.264C73.1704 19.516 72.9417 19.7213 72.6617 19.88C72.3817 20.0387 72.0411 20.118 71.6397 20.118C71.2571 20.118 70.9211 20.0433 70.6317 19.894C70.3517 19.7447 70.1184 19.544 69.9317 19.292C69.7544 19.04 69.6191 18.7553 69.5257 18.438C69.4417 18.1113 69.3997 17.78 69.3997 17.444ZM74.9997 21V11.004H73.8097V14.728H73.7817C73.6511 14.5133 73.4877 14.336 73.2917 14.196C73.1051 14.0467 72.9044 13.93 72.6897 13.846C72.4751 13.7527 72.2604 13.6873 72.0457 13.65C71.8311 13.6127 71.6304 13.594 71.4437 13.594C70.8931 13.594 70.4077 13.6967 69.9877 13.902C69.5771 14.098 69.2317 14.3687 68.9517 14.714C68.6811 15.05 68.4757 15.4467 68.3357 15.904C68.2051 16.3613 68.1397 16.8467 68.1397 17.36C68.1397 17.8733 68.2097 18.3587 68.3497 18.816C68.4897 19.2733 68.6951 19.6747 68.9657 20.02C69.2457 20.3653 69.5911 20.6407 70.0017 20.846C70.4217 21.0513 70.9117 21.154 71.4717 21.154C71.9757 21.154 72.4377 21.0653 72.8577 20.888C73.2777 20.7107 73.5857 20.4213 73.7817 20.02H73.8097V21H74.9997Z" fill="white"/>
<path d="M6.93992 15.3901C6.36992 15.3901 5.91992 15.8901 5.91992 16.5001C5.91992 17.1101 6.37992 17.6101 6.93992 17.6101C7.50992 17.6101 7.95992 17.1101 7.95992 16.5001C7.96992 15.8901 7.50992 15.3901 6.93992 15.3901ZM10.5899 15.3901C10.0199 15.3901 9.56992 15.8901 9.56992 16.5001C9.56992 17.1101 10.0299 17.6101 10.5899 17.6101C11.1599 17.6101 11.6099 17.1101 11.6099 16.5001C11.6099 15.8901 11.1599 15.3901 10.5899 15.3901Z" fill="white"/>
<path d="M15.45 7H2.05C0.92 7 0 7.92 0 9.06V22.58C0 23.72 0.92 24.64 2.05 24.64H13.39L12.86 22.79L14.14 23.98L15.35 25.1L17.5 27V9.06C17.5 7.92 16.58 7 15.45 7ZM11.59 20.06C11.59 20.06 11.23 19.63 10.93 19.25C12.24 18.88 12.74 18.06 12.74 18.06C12.33 18.33 11.94 18.52 11.59 18.65C11.09 18.86 10.61 19 10.14 19.08C9.18 19.26 8.3 19.21 7.55 19.07C6.98 18.96 6.49 18.8 6.08 18.64C5.85 18.55 5.6 18.44 5.35 18.3C5.32 18.28 5.29 18.27 5.26 18.25C5.24 18.24 5.23 18.23 5.22 18.22C5.04 18.12 4.94 18.05 4.94 18.05C4.94 18.05 5.42 18.85 6.69 19.23C6.39 19.61 6.02 20.06 6.02 20.06C3.81 19.99 2.97 18.54 2.97 18.54C2.97 15.32 4.41 12.71 4.41 12.71C5.85 11.63 7.22 11.66 7.22 11.66L7.32 11.78C5.52 12.3 4.69 13.09 4.69 13.09C4.69 13.09 4.91 12.97 5.28 12.8C6.35 12.33 7.2 12.2 7.55 12.17C7.61 12.16 7.66 12.15 7.72 12.15C8.33 12.07 9.02 12.05 9.74 12.13C10.69 12.24 11.71 12.52 12.75 13.09C12.75 13.09 11.96 12.34 10.26 11.82L10.4 11.66C10.4 11.66 11.77 11.63 13.21 12.71C13.21 12.71 14.65 15.32 14.65 18.54C14.65 18.54 13.8 19.99 11.59 20.06Z" fill="white"/>
</svg>
