<svg width="32" height="32" viewBox="0 0 32 32" fill="none" xmlns="http://www.w3.org/2000/svg">
<path d="M16.0641 1.37598C11.2001 1.37598 7.26408 5.31198 7.26408 10.176V13.184H7.07208C5.79208 13.184 4.73608 14.24 4.73608 15.488V28.288C4.73608 29.568 5.79208 30.592 7.07208 30.592H24.9281C26.2081 30.592 27.2641 29.536 27.2641 28.288V15.488C27.2641 14.208 26.2081 13.184 24.9281 13.184H24.8321V10.176C24.8321 5.31198 20.8961 1.37598 16.0641 1.37598ZM11.1041 10.176C11.1041 7.45598 13.3121 5.21598 16.0641 5.21598C18.7841 5.21598 21.0241 7.42398 21.0241 10.176V13.184H11.1041V10.176ZM7.32808 28.064V25.824L9.08808 28.064H7.32808ZM11.1041 28.064L7.32808 23.232V22.304H8.60808L13.1201 28.064H11.1041ZM15.1361 28.064L10.6241 22.304H12.6401L17.1521 28.064H15.1361ZM19.2001 28.064L14.6881 22.304H16.7041L21.2161 28.064H19.2001ZM24.6721 28.064H23.2321L18.7201 22.304H20.7361L24.6721 27.328V28.064ZM24.6721 24.736L22.7841 22.304H24.6721V24.736Z" fill="url(#paint0_linear)"/>
<defs>
<linearGradient id="paint0_linear" x1="32.5438" y1="-3.43022" x2="-5.67949" y2="20.3232" gradientUnits="userSpaceOnUse">
<stop stop-color="#6B98F5"/>
<stop offset="0.463542" stop-color="#AA84C6"/>
<stop offset="1" stop-color="#DCC5CE"/>
</linearGradient>
</defs>
</svg>
