<svg width="40" height="40" viewBox="0 0 40 40" fill="none" xmlns="http://www.w3.org/2000/svg">
<path d="M39.6294 19.1054L29.3322 8.80829C29.2147 8.69076 29.0753 8.59751 28.9218 8.53389C28.7683 8.47027 28.6038 8.43752 28.4376 8.4375C28.2714 8.43748 28.1069 8.47021 27.9534 8.5338C27.7999 8.5974 27.6604 8.69062 27.5429 8.80813L24.2187 12.1323L20.8947 8.80829C20.7772 8.69076 20.6378 8.59751 20.4843 8.53389C20.3308 8.47027 20.1663 8.43752 20.0001 8.4375C19.8339 8.43748 19.6694 8.47021 19.5159 8.5338C19.3624 8.5974 19.2229 8.69062 19.1054 8.80813L15.7811 12.1323L14.8973 11.2484L14.8973 11.2484L12.4572 8.8083C12.3397 8.69076 12.2003 8.59752 12.0468 8.53389C11.8933 8.47027 11.7288 8.43752 11.5626 8.4375C11.3964 8.43749 11.2319 8.47021 11.0784 8.5338C10.9249 8.5974 10.7854 8.69062 10.6679 8.80813L0.37009 19.1055C0.133342 19.3431 0.000429722 19.6648 0.000488301 20.0002C0.000546879 20.3355 0.133571 20.6572 0.370403 20.8946L10.6676 31.1917C10.7851 31.3093 10.9245 31.4025 11.078 31.4661C11.2315 31.5297 11.3961 31.5625 11.5622 31.5625C11.7284 31.5625 11.8929 31.5298 12.0464 31.4662C12.1999 31.4026 12.3394 31.3094 12.4569 31.1919L15.7811 27.8678L19.1051 31.1917C19.2226 31.3093 19.362 31.4025 19.5155 31.4661C19.669 31.5297 19.8336 31.5625 19.9997 31.5625C20.1659 31.5625 20.3304 31.5298 20.4839 31.4662C20.6374 31.4026 20.7769 31.3094 20.8944 31.1919L24.2187 27.8677L25.1026 28.7516L25.1025 28.7516L27.5426 31.1917C27.6601 31.3093 27.7995 31.4025 27.953 31.4661C28.1065 31.5297 28.2711 31.5625 28.4372 31.5625C28.6034 31.5625 28.7679 31.5298 28.9214 31.4662C29.0749 31.4026 29.2144 31.3094 29.3319 31.1919L39.6294 20.8946L39.6297 20.8945C39.8665 20.6569 39.9994 20.3352 39.9993 19.9999C39.9993 19.6645 39.8663 19.3428 39.6294 19.1054ZM20.0106 9.69195L23.3348 13.0161L19.9999 16.3509L16.6722 13.0233L20.0106 9.69195ZM30.3081 20.0108L24.2168 26.0894L20.8918 22.7576L22.7547 20.8949C22.9916 20.6573 23.1246 20.3354 23.1246 19.9999C23.1245 19.6643 22.9914 19.3425 22.7544 19.1049L22.7541 19.1046L20.884 17.2345L24.2186 13.8999L30.3078 19.989C30.3093 19.9905 30.3104 19.9922 30.3112 19.9941C30.312 19.9959 30.3124 19.998 30.3124 20C30.3124 20.002 30.312 20.0041 30.3112 20.006C30.3104 20.0078 30.3093 20.0096 30.3078 20.011L30.3081 20.0108ZM21.8703 20.011L21.8704 20.0111L20.0068 21.8707L18.9338 20.7955L18.1893 20.0494L18.1294 19.9889L19.993 18.1293L21.8102 19.9503L21.8703 20.011ZM17.2451 19.1051C17.0082 19.3427 16.8752 19.6646 16.8753 20.0001C16.8753 20.3357 17.0084 20.6575 17.2454 20.8951L17.2457 20.8954L19.1159 22.7655L15.7856 26.0957L9.69168 19.9892L15.783 13.9106L19.108 17.2424L17.2451 19.1051ZM14.0135 27.8678L7.92409 21.7786C7.45335 21.3065 7.18896 20.667 7.18884 20.0004C7.18872 19.3337 7.4529 18.6942 7.92347 18.2219L14.0109 12.1348L14.8938 13.0196L8.80759 19.1055C8.57084 19.3431 8.43793 19.6648 8.43799 20.0002C8.43805 20.3355 8.57107 20.6572 8.80791 20.8946L14.8973 26.984L14.0135 27.8678ZM19.9892 30.3081L16.6685 26.9804L20 23.6491L23.3276 26.9767L19.9892 30.3081ZM32.0763 21.7781L25.9889 27.8652L25.106 26.9804L31.1919 20.8946L31.1922 20.8945C31.429 20.6569 31.5619 20.3352 31.5618 19.9999C31.5618 19.6645 31.4288 19.3428 31.1919 19.1054L25.1025 13.0161L25.9863 12.1323L32.0757 18.2214C32.5464 18.6935 32.8108 19.333 32.811 19.9997C32.8111 20.6663 32.5469 21.3059 32.0763 21.7781V21.7781Z" fill="url(#paint0_linear)"/>
<defs>
<linearGradient id="paint0_linear" x1="49.3735" y1="4.6333" x2="17.4103" y2="49.1899" gradientUnits="userSpaceOnUse">
<stop stop-color="#6B98F5"/>
<stop offset="0.463542" stop-color="#AA84C6"/>
<stop offset="1" stop-color="#DCC5CE"/>
</linearGradient>
</defs>
</svg>
