<svg width="28" height="28" viewBox="0 0 28 28" fill="none" xmlns="http://www.w3.org/2000/svg">
<path d="M17.6842 11.7895H12.6737C12.1853 11.7895 11.7895 12.1853 11.7895 12.6737V13.7802H8.8421V12.6737C8.8421 10.5576 10.5576 8.8421 12.6737 8.8421H17.6842V4.42105C17.6842 3.60716 17.0244 2.94737 16.2105 2.94737H4.42105C3.60716 2.94737 2.94737 3.60716 2.94737 4.42105V16.2105C2.94737 17.0244 3.60716 17.6842 4.42105 17.6842H8.8421V15.2538H11.7895V17.6842H16.2105C17.0244 17.6842 17.6842 17.0244 17.6842 16.2105V11.7895ZM20.6316 11.7895V16.2105C20.6316 18.6522 18.6522 20.6316 16.2105 20.6316H11.7895V24.1684C11.7895 24.6568 12.1853 25.0526 12.6737 25.0526H16.3603V28H12.6737C10.5576 28 8.8421 26.2845 8.8421 24.1684V20.6316H4.42105C1.97937 20.6316 0 18.6522 0 16.2105V4.42105C0 1.97937 1.97937 0 4.42105 0H16.2105C18.6522 0 20.6316 1.97937 20.6316 4.42105V8.8421H24.1684V11.7895H20.6316ZM28 17.9016V24.1684C28 26.2845 26.2845 28 24.1684 28H17.834V25.0526H24.1684C24.6568 25.0526 25.0526 24.6568 25.0526 24.1684V17.9016H28ZM24.1684 8.8421C26.2845 8.8421 28 10.5576 28 12.6737V16.4279H25.0526V12.6737C25.0526 12.1853 24.6568 11.7895 24.1684 11.7895V8.8421Z" fill="url(#paint0_linear)"/>
<defs>
<linearGradient id="paint0_linear" x1="34.5621" y1="-4.60616" x2="-5.36124" y2="27.5692" gradientUnits="userSpaceOnUse">
<stop stop-color="#6B98F5"/>
<stop offset="0.463542" stop-color="#AA84C6"/>
<stop offset="1" stop-color="#DCC5CE"/>
</linearGradient>
</defs>
</svg>
