<svg width="8" height="14" viewBox="0 0 8 14" fill="none" xmlns="http://www.w3.org/2000/svg">
<path d="M-8.9569e-06 0.534362C-8.94796e-06 0.239575 0.253814 -5.47102e-08 0.567378 -3.52368e-08C0.880755 -1.5775e-08 1.13477 0.239575 1.13477 0.534362C1.13477 0.830025 0.880755 1.06872 0.567378 1.06872C0.253907 1.06881 -8.96587e-06 0.830025 -8.9569e-06 0.534362Z" fill="url(#paint0_linear)"/>
<path d="M-8.84231e-06 2.15049C-8.83083e-06 1.85605 0.253814 1.61621 0.567378 1.61621C0.880755 1.61621 1.13477 1.85605 1.13477 2.15049C1.13477 2.44606 0.880755 2.68537 0.567378 2.68537C0.253907 2.68537 -8.85383e-06 2.44606 -8.84231e-06 2.15049Z" fill="url(#paint1_linear)"/>
<path d="M1.71599 2.15049C1.71599 1.85605 1.97 1.61621 2.28412 1.61621C2.59731 1.61621 2.85132 1.85605 2.85132 2.15049C2.85132 2.44606 2.59731 2.68537 2.28412 2.68537C1.97 2.68537 1.71599 2.44606 1.71599 2.15049Z" fill="url(#paint2_linear)"/>
<path d="M1.71599 3.76766C1.71599 3.47243 1.97 3.23242 2.28412 3.23242C2.59731 3.23242 2.85132 3.47243 2.85132 3.76766C2.85132 4.06227 2.59731 4.30202 2.28412 4.30202C1.97 4.30202 1.71599 4.06227 1.71599 3.76766Z" fill="url(#paint3_linear)"/>
<path d="M3.43261 3.76766C3.43261 3.47243 3.68662 3.23242 4.00018 3.23242C4.31337 3.23242 4.56738 3.47243 4.56738 3.76766C4.56738 4.06227 4.31337 4.30202 4.00018 4.30202C3.68662 4.30202 3.43261 4.06227 3.43261 3.76766Z" fill="url(#paint4_linear)"/>
<path d="M3.43261 5.38375C3.43261 5.08817 3.68662 4.84912 4.00018 4.84912C4.31337 4.84912 4.56738 5.08817 4.56738 5.38375C4.56738 5.67827 4.31337 5.91793 4.00018 5.91793C3.68662 5.91802 3.43261 5.67827 3.43261 5.38375Z" fill="url(#paint5_linear)"/>
<path d="M5.14885 5.38375C5.14885 5.08817 5.40286 4.84912 5.71605 4.84912C6.02998 4.84912 6.28418 5.08817 6.28418 5.38375C6.28418 5.67827 6.02998 5.91793 5.71605 5.91793C5.40295 5.91802 5.14885 5.67827 5.14885 5.38375Z" fill="url(#paint6_linear)"/>
<path d="M5.14885 6.99987C5.14885 6.70421 5.40286 6.46533 5.71605 6.46533C6.02998 6.46533 6.28418 6.70421 6.28418 6.99987C6.28418 7.29553 6.02998 7.53441 5.71605 7.53441C5.40295 7.53441 5.14885 7.29553 5.14885 6.99987Z" fill="url(#paint7_linear)"/>
<path d="M6.86504 6.99987C6.86504 6.70421 7.11924 6.46533 7.4328 6.46533C7.74618 6.46533 8 6.70421 8 6.99987C8 7.29553 7.74618 7.53441 7.4328 7.53441C7.11924 7.53441 6.86504 7.29553 6.86504 6.99987Z" fill="url(#paint8_linear)"/>
<path d="M3.43261 8.61622C3.43261 8.32169 3.68662 8.08203 4.00018 8.08203C4.31337 8.08203 4.56738 8.32169 4.56738 8.61622C4.56738 8.91179 4.31337 9.15084 4.00018 9.15084C3.68662 9.15084 3.43261 8.91179 3.43261 8.61622Z" fill="url(#paint9_linear)"/>
<path d="M5.14274 8.61085C5.14275 8.31632 5.39675 8.07666 5.70995 8.07666C6.02388 8.07666 6.27808 8.31632 6.27808 8.61085C6.27808 8.90642 6.02388 9.14547 5.70995 9.14547C5.39685 9.14547 5.14274 8.90642 5.14274 8.61085Z" fill="url(#paint10_linear)"/>
<path d="M1.71599 10.2323C1.71599 9.93768 1.97 9.69775 2.28412 9.69775C2.59731 9.69775 2.85132 9.93768 2.85132 10.2323C2.85132 10.5275 2.59731 10.7675 2.28412 10.7675C1.97 10.7676 1.71599 10.5275 1.71599 10.2323Z" fill="url(#paint11_linear)"/>
<path d="M3.43261 10.2323C3.43261 9.93768 3.68662 9.69775 4.00018 9.69775C4.31337 9.69775 4.56738 9.93768 4.56738 10.2323C4.56738 10.5275 4.31337 10.7675 4.00018 10.7675C3.68662 10.7676 3.43261 10.5275 3.43261 10.2323Z" fill="url(#paint12_linear)"/>
<path d="M-8.84233e-06 11.8493C-8.83081e-06 11.5537 0.253814 11.3145 0.567378 11.3145C0.880755 11.3145 1.13477 11.5537 1.13477 11.8493C1.13477 12.1438 0.880755 12.3836 0.567378 12.3836C0.253907 12.3836 -8.85381e-06 12.1438 -8.84233e-06 11.8493Z" fill="url(#paint13_linear)"/>
<path d="M1.60002 12.2014C1.60002 11.9057 1.85403 11.6665 2.16815 11.6665C2.48134 11.6665 2.73535 11.9057 2.73535 12.2014C2.73535 12.4958 2.48134 12.7357 2.16815 12.7357C1.85403 12.7357 1.60002 12.4958 1.60002 12.2014Z" fill="url(#paint14_linear)"/>
<path d="M-8.84231e-06 13.4654C-8.83079e-06 13.1699 0.253814 12.9312 0.567378 12.9312C0.880755 12.9312 1.13477 13.1699 1.13477 13.4654C1.13477 13.7612 0.880755 13.9999 0.567378 13.9999C0.253907 13.9999 -8.85383e-06 13.7611 -8.84231e-06 13.4654Z" fill="url(#paint15_linear)"/>
<defs>
<linearGradient id="paint0_linear" x1="1.32144" y1="1.31919" x2="0.11096" y2="-0.275607" gradientUnits="userSpaceOnUse">
<stop stop-color="#6B98F5"/>
<stop offset="0.463542" stop-color="#AA84C6"/>
<stop offset="1" stop-color="#DCC5CE"/>
</linearGradient>
<linearGradient id="paint1_linear" x1="1.32144" y1="2.93594" x2="0.11033" y2="1.34097" gradientUnits="userSpaceOnUse">
<stop stop-color="#6B98F5"/>
<stop offset="0.463542" stop-color="#AA84C6"/>
<stop offset="1" stop-color="#DCC5CE"/>
</linearGradient>
<linearGradient id="paint2_linear" x1="3.03809" y1="2.93594" x2="1.82713" y2="1.3404" gradientUnits="userSpaceOnUse">
<stop stop-color="#6B98F5"/>
<stop offset="0.463542" stop-color="#AA84C6"/>
<stop offset="1" stop-color="#DCC5CE"/>
</linearGradient>
<linearGradient id="paint3_linear" x1="3.03809" y1="4.55269" x2="1.82651" y2="2.95697" gradientUnits="userSpaceOnUse">
<stop stop-color="#6B98F5"/>
<stop offset="0.463542" stop-color="#AA84C6"/>
<stop offset="1" stop-color="#DCC5CE"/>
</linearGradient>
<linearGradient id="paint4_linear" x1="4.75406" y1="4.55269" x2="3.54232" y2="2.95754" gradientUnits="userSpaceOnUse">
<stop stop-color="#6B98F5"/>
<stop offset="0.463542" stop-color="#AA84C6"/>
<stop offset="1" stop-color="#DCC5CE"/>
</linearGradient>
<linearGradient id="paint5_linear" x1="4.75406" y1="6.16842" x2="3.54345" y2="4.57359" gradientUnits="userSpaceOnUse">
<stop stop-color="#6B98F5"/>
<stop offset="0.463542" stop-color="#AA84C6"/>
<stop offset="1" stop-color="#DCC5CE"/>
</linearGradient>
<linearGradient id="paint6_linear" x1="6.47095" y1="6.16842" x2="5.2605" y2="4.57302" gradientUnits="userSpaceOnUse">
<stop stop-color="#6B98F5"/>
<stop offset="0.463542" stop-color="#AA84C6"/>
<stop offset="1" stop-color="#DCC5CE"/>
</linearGradient>
<linearGradient id="paint7_linear" x1="6.47095" y1="7.78496" x2="5.26012" y2="6.18945" gradientUnits="userSpaceOnUse">
<stop stop-color="#6B98F5"/>
<stop offset="0.463542" stop-color="#AA84C6"/>
<stop offset="1" stop-color="#DCC5CE"/>
</linearGradient>
<linearGradient id="paint8_linear" x1="8.18671" y1="7.78496" x2="6.97577" y2="6.18983" gradientUnits="userSpaceOnUse">
<stop stop-color="#6B98F5"/>
<stop offset="0.463542" stop-color="#AA84C6"/>
<stop offset="1" stop-color="#DCC5CE"/>
</linearGradient>
<linearGradient id="paint9_linear" x1="4.75406" y1="9.40133" x2="3.54346" y2="7.8065" gradientUnits="userSpaceOnUse">
<stop stop-color="#6B98F5"/>
<stop offset="0.463542" stop-color="#AA84C6"/>
<stop offset="1" stop-color="#DCC5CE"/>
</linearGradient>
<linearGradient id="paint10_linear" x1="6.46484" y1="9.39596" x2="5.25439" y2="7.80056" gradientUnits="userSpaceOnUse">
<stop stop-color="#6B98F5"/>
<stop offset="0.463542" stop-color="#AA84C6"/>
<stop offset="1" stop-color="#DCC5CE"/>
</linearGradient>
<linearGradient id="paint11_linear" x1="3.03809" y1="11.0182" x2="1.82626" y2="9.42245" gradientUnits="userSpaceOnUse">
<stop stop-color="#6B98F5"/>
<stop offset="0.463542" stop-color="#AA84C6"/>
<stop offset="1" stop-color="#DCC5CE"/>
</linearGradient>
<linearGradient id="paint12_linear" x1="4.75406" y1="11.0182" x2="3.54207" y2="9.42302" gradientUnits="userSpaceOnUse">
<stop stop-color="#6B98F5"/>
<stop offset="0.463542" stop-color="#AA84C6"/>
<stop offset="1" stop-color="#DCC5CE"/>
</linearGradient>
<linearGradient id="paint13_linear" x1="1.32144" y1="12.6342" x2="0.11033" y2="11.0392" gradientUnits="userSpaceOnUse">
<stop stop-color="#6B98F5"/>
<stop offset="0.463542" stop-color="#AA84C6"/>
<stop offset="1" stop-color="#DCC5CE"/>
</linearGradient>
<linearGradient id="paint14_linear" x1="2.92212" y1="12.9862" x2="1.71117" y2="11.3907" gradientUnits="userSpaceOnUse">
<stop stop-color="#6B98F5"/>
<stop offset="0.463542" stop-color="#AA84C6"/>
<stop offset="1" stop-color="#DCC5CE"/>
</linearGradient>
<linearGradient id="paint15_linear" x1="1.32144" y1="14.2503" x2="0.110956" y2="12.6555" gradientUnits="userSpaceOnUse">
<stop stop-color="#6B98F5"/>
<stop offset="0.463542" stop-color="#AA84C6"/>
<stop offset="1" stop-color="#DCC5CE"/>
</linearGradient>
</defs>
</svg>
